<svg width="20" height="20" viewBox="0 0 20 20" fill="none" xmlns="http://www.w3.org/2000/svg">
<path d="M12.5 3.75H3.4375C3.0231 3.75 2.62567 3.91462 2.33265 4.20765C2.03962 4.50067 1.875 4.8981 1.875 5.3125V14.6875C1.875 15.1019 2.03962 15.4993 2.33265 15.7924C2.62567 16.0854 3.0231 16.25 3.4375 16.25H16.5129C16.9273 16.25 17.3247 16.0854 17.6177 15.7924C17.9108 15.4993 18.0754 15.1019 18.0754 14.6875V9.33594" stroke="white" stroke-width="2" stroke-linecap="round" stroke-linejoin="round"/>
<path d="M4.375 6.25L10 10.625L13.3984 8.05977" stroke="white" stroke-width="2" stroke-linecap="round" stroke-linejoin="round"/>
<path d="M16.873 6.875C17.9075 6.875 18.7461 6.03641 18.7461 5.00195C18.7461 3.9675 17.9075 3.12891 16.873 3.12891C15.8386 3.12891 15 3.9675 15 5.00195C15 6.03641 15.8386 6.875 16.873 6.875Z" fill="white"/>
<path d="M16.875 7.5C16.3809 7.5 15.898 7.35349 15.4872 7.079C15.0764 6.80452 14.7562 6.41437 14.5671 5.95792C14.378 5.50146 14.3286 4.99918 14.425 4.51461C14.5213 4.03004 14.7593 3.58493 15.1086 3.23557C15.458 2.88621 15.9031 2.64829 16.3877 2.55191C16.8722 2.45552 17.3745 2.50499 17.831 2.69406C18.2874 2.88313 18.6776 3.20331 18.9521 3.61411C19.2265 4.02492 19.373 4.50789 19.373 5.00195C19.3725 5.66432 19.1092 6.29941 18.6408 6.76777C18.1725 7.23613 17.5374 7.49948 16.875 7.5ZM16.875 3.75391C16.6277 3.75352 16.3858 3.8265 16.18 3.96362C15.9742 4.10074 15.8137 4.29582 15.7188 4.5242C15.6239 4.75257 15.5988 5.00397 15.6468 5.24657C15.6948 5.48918 15.8137 5.71209 15.9885 5.8871C16.1632 6.06211 16.3859 6.18135 16.6285 6.22974C16.871 6.27813 17.1224 6.25349 17.351 6.15894C17.5795 6.06439 17.7748 5.90418 17.9122 5.69857C18.0497 5.49297 18.123 5.25122 18.123 5.00391C18.123 4.67273 17.9916 4.35508 17.7576 4.12071C17.5236 3.88635 17.2062 3.75442 16.875 3.75391Z" fill="white"/>
</svg>
